<svg id="Layer_1" data-name="Layer 1" xmlns="http://www.w3.org/2000/svg" viewBox="0 0 150 250"><defs><style>.cls-1{fill:#bcbcbc;}</style></defs><path class="cls-1" d="M77.43,162.81c-1.17,8.74-.83,17.53-.66,26.3A69.09,69.09,0,0,0,78.1,202.6c.86,4,3.82,4.82,7,5.74,4.3,1.24,8.75.88,13.12,1.41a27.65,27.65,0,0,1,5.7,1.12c.79.26,1.63.58,1.74,1.55s-.71,1.57-1.49,2a19.63,19.63,0,0,1-6.64,1.68c-3.49.52-7,.63-10.54.81-6,.3-11.9.48-17.84.25-6.86-.28-13.77-.19-20.53-1.73A7.44,7.44,0,0,1,45,213.69c-1.2-1.17-1.11-2,.45-2.64a25.3,25.3,0,0,1,5.84-1.29c3.26-.51,6.57-.24,9.85-.67a48.73,48.73,0,0,0,7-1.79c2.92-.84,3.4-3.37,3.91-5.78a64.72,64.72,0,0,0,1.12-12.81c0-3.11.08-6.23.22-9.35.18-4.15-.34-8.33-.51-12.5a31.82,31.82,0,0,0-.76-6.82c-1.48-5.62-4-10.4-9.25-13.63a67.5,67.5,0,0,1-14.3-12.24,34,34,0,0,1-8.49-16.91,41.27,41.27,0,0,1-.31-10.89c.34-4.51.75-9,1.43-13.48,1.45-9.56,3.94-18.89,6.27-28.25.82-3.25.83-3.25,4.17-3.25H75c8.32,0,16.64,0,25,0,1.39,0,1.92.47,2.26,1.8,2.66,10.49,5.26,21,6.92,31.71a88.39,88.39,0,0,1,1.12,20.41c-.52,6.44-3.38,12.06-7.36,17.13-4.82,6.14-10.94,10.76-17.3,15.16C80.32,151.2,78.24,156.75,77.43,162.81Z"/></svg>