<svg id="Layer_1" data-name="Layer 1" xmlns="http://www.w3.org/2000/svg" viewBox="0 0 150 250"><defs><style>.cls-1{fill:#bcbcbc;}</style></defs><path class="cls-1" d="M97.72,213.81c0,1.33-1.37,1.58-2.42,1.94a23.13,23.13,0,0,1-6.79,1c-4.64.16-9.3.81-13.94.38-6-.56-12.13.22-18.13-1a14.15,14.15,0,0,1-3-.91,1.6,1.6,0,0,1-1.13-1.46c0-.76.69-1,1.33-1.23a30.63,30.63,0,0,1,5.72-1c2.67-.29,5.39-.16,8-.94,5.21-1.53,4.91-1.32,5.68-7.06.83-6.14.43-12.36.34-18.54a25,25,0,0,0-2.14-11,13,13,0,0,0-6.37-6.06,25.77,25.77,0,0,1-8.7-6.71c-2.61-3.14-3.44-7.07-3.58-11-.26-7.44.79-14.78,1.9-22.11.77-5.1,1.67-10.19,2.56-15.28.11-.61.59-1.15.43-1.84.36-1.66.75-3.32,1.07-5a1.46,1.46,0,0,1,1.65-1.4q14.88,0,29.75,0a1.35,1.35,0,0,1,1.56,1.26c2.15,10.38,4.19,20.76,5.38,31.31a109,109,0,0,1,.65,13.75A21.67,21.67,0,0,1,95,159.81a27.87,27.87,0,0,1-10.74,8.64c-5,2.46-6.7,7.12-7.24,12.2a129.05,129.05,0,0,0-.35,17.48,37.9,37.9,0,0,0,1,8.74,3.83,3.83,0,0,0,2.4,2.84,21.55,21.55,0,0,0,6.5,1.52c2.93.2,5.89.18,8.74,1C96.25,212.52,97.7,212.48,97.72,213.81Z"/></svg>