<svg id="Layer_1" data-name="Layer 1" xmlns="http://www.w3.org/2000/svg" viewBox="0 0 150 250"><defs><style>.cls-1{fill:#bcbcbc;}</style></defs><path class="cls-1" d="M77,151.75c-.68,11.67-.4,23.35-.25,35a91,91,0,0,0,1.09,14c.73,4.33,3.1,6.23,7,7.24,3.75,1,7.56,1,11.36,1.35a44.09,44.09,0,0,1,7.84,1.12c1,.28,2.21.44,2.31,1.82s-1,1.63-1.86,2.08c-3,1.55-6.35,1.75-9.61,2a223.14,223.14,0,0,1-26.49.7c-6.8-.25-13.65-.13-20.35-1.71a7.73,7.73,0,0,1-4.06-2c-.88-.92-.72-1.6.28-2.29a7.16,7.16,0,0,1,2.83-1,70.57,70.57,0,0,1,11-1.08,34.49,34.49,0,0,0,10.31-2.22,4.76,4.76,0,0,0,2.91-3.34,34,34,0,0,0,1.37-8c.75-11,.19-22.05.42-33.07a80,80,0,0,0-1.2-17,20.72,20.72,0,0,0-5.06-10.53c-1.59-1.65-4-2.2-6-3.33-6.39-3.62-12-8.07-16-14.34a34.56,34.56,0,0,1-5.5-18,160.74,160.74,0,0,1,.49-16.72c.51-5.85,1.06-11.7,2-17.5.74-4.63,1.44-9.28,2.16-13.92,1.11-5.71,2.24-11.43,3.32-17.16.24-1.32,1.16-1.23,2.12-1.23l35.94,0c5.07,0,10.15,0,15.22,0,1.08,0,1.67.2,1.93,1.46,2.57,12.63,4.82,25.31,6.38,38.12a210.56,210.56,0,0,1,1.73,24.06,61.07,61.07,0,0,1-1.12,11c-1.26,3-2.2,6.09-4,8.83-5.17,8-12.36,13.49-20.89,17.37a7.25,7.25,0,0,0-3,2.8C78.49,141,77.3,146.26,77,151.75Z"/></svg>