<svg id="Layer_1" data-name="Layer 1" xmlns="http://www.w3.org/2000/svg" viewBox="0 0 150 250"><defs><style>.cls-1{fill:#bcbcbc;}</style></defs><path class="cls-1" d="M97,215.4a28.7,28.7,0,0,1-7.26,1.4,210.21,210.21,0,0,1-23.68.31c-4.19-.16-8.48-.13-12.54-1.61a4.61,4.61,0,0,1-1.84-1c-1.15-1.19-.9-2.47.68-3,3.32-1.05,6.79-1.3,10.22-1.79,2.46-.36,4.94-.12,7.38-.65a1.74,1.74,0,0,0,1.36-1,15.89,15.89,0,0,0,2-7.24c0-6.56-.1-13.11,0-19.65.17-7.87.48-15.74.25-23.6s-.74-16-4.35-23.42a5.27,5.27,0,0,0-2-2.39C62.76,129.15,60,125,57.89,120.4a43.18,43.18,0,0,1-3.38-14.86,45.77,45.77,0,0,1,0-8.44c.39-9.11,1.37-18.18,2.1-27.26.41-5,1-10,1.24-15,.2-4.21.92-8.39,1.33-12.59.12-1.29,1-1.12,1.76-1.12H78.76c3.54,0,7.08,0,10.62,0,1.18,0,1.58.32,1.69,1.57.6,6.73,1.36,13.44,2,20.16.45,4.68.79,9.37,1.18,14.06.33,3.69.78,7.37,1,11.07.23,5,1,10.09.73,15.15-.33,6.57-1.41,13-4.46,18.93-1.82,3.55-4.08,6.78-7.55,8.91-2.06,1.27-3,3.2-3.79,5.34a47.05,47.05,0,0,0-3,14.44c-.67,16.75-.1,33.49-.24,50.24a13.32,13.32,0,0,0,2.2,7.18c.85,1.36,2.36,1.1,3.65,1.19a79.88,79.88,0,0,1,13.61,1.78c.18.05.35.07.52.12,1,.31,2.11.64,2.17,1.79S98.1,215,97,215.4Z"/></svg>