<svg id="Layer_1" data-name="Layer 1" xmlns="http://www.w3.org/2000/svg" viewBox="0 0 150 250"><defs><style>.cls-1{fill:#bcbcbc;}</style></defs><path class="cls-1" d="M104.72,212.47c0,1.15-.89,1.77-1.81,2.2-2.71,1.29-5.68,1.44-8.59,1.79-4.63.55-9.31.22-13.95.46-3.3.17-6.59.35-9.89.25-4.64-.14-9.27-.51-13.91-.65a30.68,30.68,0,0,1-9.22-1.75,3.71,3.71,0,0,1-.65-.27c-.76-.49-1.54-1-1.4-2.06s.94-1.32,1.74-1.54a34.11,34.11,0,0,1,7.31-1.12,61.8,61.8,0,0,0,10.33-1.1,6.68,6.68,0,0,1,.86-.2c5-.64,6.55-4.17,6.95-8.57.28-3.21.67-6.44.7-9.66q.14-17,0-34c-.07-6.75-1.32-13.23-5.47-18.83a60,60,0,0,0-5.17-5.52,81.07,81.07,0,0,1-8.34-10,51.2,51.2,0,0,1-7.78-15.76c-1.52-5.66-1.18-11.4-.55-17.16C47,79.29,49.63,70,52.7,60.86c1.71-5.11,1.7-5.12,7.07-5.12H75c6.19,0,12.39,0,18.58,0A2.06,2.06,0,0,1,96,57.25a161.8,161.8,0,0,1,7.76,29,74.4,74.4,0,0,1,.64,14.45A32.11,32.11,0,0,1,100.9,113a66.61,66.61,0,0,1-14.5,19.65,33.77,33.77,0,0,0-7.11,10,28,28,0,0,0-2.45,12q-.24,18.76,0,37.54a47,47,0,0,0,1.39,11.53,5.44,5.44,0,0,0,3.65,3.94c4.2,1.62,8.6,1.84,13,2.09a40.44,40.44,0,0,1,7.84,1.08C103.57,211.05,104.73,211.21,104.72,212.47Z"/></svg>