<svg id="Layer_1" data-name="Layer 1" xmlns="http://www.w3.org/2000/svg" viewBox="0 0 150 250"><defs><style>.cls-1{fill:#bcbcbc;}</style></defs><path class="cls-1" d="M101.18,213.18A1.82,1.82,0,0,1,99.8,215a20,20,0,0,1-4.73,1.4,74,74,0,0,1-7.74.41c-4.06.07-8.11.4-12.18.41-5.05,0-10.08-.35-15.13-.38a27.13,27.13,0,0,1-8.79-1.42,5.3,5.3,0,0,1-1.55-.8c-1.28-1-1.14-2.08.38-2.63a37.3,37.3,0,0,1,5.85-1.23c2.74-.52,5.55,0,8.25-.7,1.88-.48,3.76-1,5.58-1.63a3.54,3.54,0,0,0,2.2-2.39,27.92,27.92,0,0,0,1.28-7.45c.52-14.32.46-28.65.34-43a65.87,65.87,0,0,0-.82-11.06c-1-5.86-4.24-10.3-9.24-13.79-8.1-5.66-13.68-13.24-14.89-23.37a43.68,43.68,0,0,1,0-8.48A173.13,173.13,0,0,1,52,75.41c.37-1.72.68-3.45,1-5.18.82-3.25,1.74-6.47,2.41-9.74.33-1.64,1.09-2,2.63-2,8.11.07,16.23,0,24.34,0,3.36,0,6.72.09,10.08,0a1.7,1.7,0,0,1,1.94,1.52,243,243,0,0,1,6,28.48,107.39,107.39,0,0,1,1.19,15.64,29.73,29.73,0,0,1-6.15,18c-3.07,4.12-7,7.24-11.07,10.28-4.49,3.36-6.73,8.06-7.25,13.58-1.28,13.59-.72,27.21-.58,40.81.06,5.5-.16,11.06.88,16.54.58,3,1.87,5.06,5,5.83a33.3,33.3,0,0,0,7.63,1.23,35.27,35.27,0,0,1,9.4,1.38C100.24,212.09,101.08,212.23,101.18,213.18Z"/></svg>