<?xml version="1.0" encoding="utf-8"?>
<!-- Generator: Adobe Illustrator 26.0.0, SVG Export Plug-In . SVG Version: 6.00 Build 0)  -->
<svg version="1.1" id="Layer_1" xmlns="http://www.w3.org/2000/svg" xmlns:xlink="http://www.w3.org/1999/xlink" x="0px" y="0px"
	 viewBox="0 0 674.18 141.06" style="enable-background:new 0 0 674.18 141.06;" xml:space="preserve">
<style type="text/css">
	.st0{fill:#F5F5F5;}
</style>
<g id="XMLID_194_">
	<path id="XMLID_220_" class="st0" d="M86.27,30.61v3.29H72.12L54.75,76.09L43.21,104.1l-1.86-3.54L5.97,33.46H0v-3.3h38.06v3.3
		h-5.47l20.24,38.92L68.49,33.9H56.07v-3.29H86.27z"/>
	<path id="XMLID_217_" class="st0" d="M123.24,97.4v3.3H83.87v-3.3h7.31v-63.5H86.2v-3.3h29.73v66.8H123.24z M93.24,10.94
		C93.24,4.9,98.15,0,104.19,0s10.94,4.9,10.94,10.94s-4.9,10.94-10.94,10.94S93.24,16.99,93.24,10.94z"/>
	<path id="XMLID_215_" class="st0" d="M171.69,97.41v3.29h29c-7.72-9.38-11.87-21.8-11.87-36.47c0-9.85,2-18.85,5.69-26.68
		c-4.67-3.96-11.04-6.04-17.47-6.86c-2.82-0.36-5.67-0.5-8.51-0.42c-5.13,0.13-10.05,2.08-13.88,5.5v-5.3h-29.74v3.3h4.98v63.64
		h-6.65v3.29h38.06v-3.29h-6.65V38.52c3.19-3.33,7.6-5.23,12.22-5.27c9.91,0,10.17,14.87,10.17,20.23v43.93H171.69z"/>
	<path id="XMLID_213_" class="st0" d="M367.24,97.64V30.38h-31.41v3.36h6.66v58.39c-2.87,3.32-6.84,6.23-11.97,6.23
		c-10.4,0-10.43-16.09-10.43-20.73V30.38h-22c6.3,9.27,9.68,20.53,9.68,32.66c0,11.26-2.37,21.21-7.06,29.66
		c4.73,5.25,12.01,7.87,19.38,8.84c2.82,0.36,5.67,0.5,8.51,0.43c5.15-0.15,10.08-2.14,13.89-5.61v4.62h29.73v-3.35L367.24,97.64z"
		/>
	<path id="XMLID_210_" class="st0" d="M411.58,97.66v3.3h-39.37v-3.3h7.31v-63.5h-4.98v-3.3h29.73v66.8H411.58z M381.59,11.21
		c0-6.04,4.9-10.94,10.94-10.94c6.04,0,10.94,4.9,10.94,10.94s-4.9,10.94-10.94,10.94C386.49,22.15,381.59,17.25,381.59,11.21z"/>
	<path id="XMLID_208_" class="st0" d="M475.03,78.1l-1.96,22.94l-63.27-0.07l36.22-66.92h-11.41c-7.68,0-15.76,0.76-17.36,17.37
		l-0.35,3.33h-2.15l2.3-24.02h57.41l-36.25,66.94h16.9c7.06,0,14.77-2.06,17.2-15.3v-0.04l-0.07-0.01c0.2-1.04,0.36-2.24,0.51-3.7
		h0.06l0.07-0.51L475.03,78.1z"/>
	<path id="XMLID_205_" class="st0" d="M519.37,97.73v3.3h-39.37v-3.3h7.31V34.02h-14.89v-3.3h39.65v67.01H519.37z M489.38,11.28
		c0-6.04,4.9-10.94,10.94-10.94c6.04,0,10.94,4.9,10.94,10.94s-4.9,10.94-10.94,10.94C494.28,22.22,489.38,17.32,489.38,11.28z"/>
	<path id="XMLID_203_" class="st0" d="M564.26,85.53c0,0-0.1,7.67-4.18,12.24c-1.9,2.18-4.68,3.39-7.57,3.3
		c-3.14,0.09-6.27-0.13-9.36-0.69c-8.03-1.54-14.53-7.43-16.85-15.26c-1.27-4.02-1.88-8.23-1.8-12.44V33.61h-12.43v-2.88h12.43
		v-9.98c0.84,0.09,18.57,1.66,19.38-14.12h3.3v24.1h12.98v2.88h-12.98v45.7h0.07v5.82h-0.07c0.04,6.87,0.71,12.65,5.84,12.65
		c5.67,0,7.93-8.02,7.93-12.24L564.26,85.53z"/>
	<path id="XMLID_201_" class="st0" d="M674.18,41.56c-0.04-0.25-0.1-0.51-0.16-0.76c-1.02-8.53-9.33-11.23-13.41-11.23
		c-6.08,0-11.83,2.71-15.69,7.4v-6.5h-26.61c10.78,6.66,18.51,18.19,18.52,34.34c0,16.76-7.23,29.32-19.81,35.89h35.58v-3.3h-7.68
		V42.34c2.57-4.67,7.08-9.83,14.33-9.83c5.15,0-0.81,2.25-1.25,9.21c-0.03,0.27-0.04,0.55-0.04,0.83c0,4.47,3.63,8.1,8.1,8.1
		c4.48,0,8.11-3.63,8.11-8.1c0-0.22-0.02-0.44-0.03-0.66c0-0.08-0.01-0.16-0.03-0.24h0.07V41.56z"/>
	<path id="XMLID_198_" class="st0" d="M289.73,141.06h-2.11c0,0-3.68-11.13-25.89-9.56c-21.99,1.57-30.24,10.06-37.75,5.14
		c-8.32-5.44-3.49-16.12,8.4-21.51c0.88-0.41,1.78-0.78,2.69-1.09c-2.02-0.33-3.99-0.77-5.89-1.28
		c-21.29-5.76-35.35-22.02-35.35-48.52c0-31.81,22.43-53.38,54.36-53.38c32.05,0,54.59,21.79,54.59,52.19
		c0,26.3-14.1,43.43-35.55,49.55c-6.19,1.73-12.59,2.58-19.02,2.53c-12.94,0-25.5,9.14-23.77,14.86
		c2.26,7.55,20.42-12.53,39.54-12.53C283.69,117.45,288.82,136.96,289.73,141.06z M248.29,111.82c26.36,0,27.65-24.04,27.65-47.01
		s-1.88-50.66-27.65-50.66c-25.88,0-27.65,26.63-27.65,49.6S222.13,111.82,248.29,111.82z"/>
	<path id="XMLID_195_" class="st0" d="M631.82,64.81c0,23.63-15.37,36.05-38.03,36.05c-18.28,0-37.94-7.89-37.94-36.05
		c0-25.21,19.86-36.06,38.14-36.06C612.27,28.75,631.82,40.47,631.82,64.81z M594.35,97.95c10.17,0,12.72-16.01,12.72-33.14
		c0-18.7-2.78-33.08-13.23-33.08S580.6,46.13,580.6,64.81C580.6,83.5,583.9,97.95,594.35,97.95L594.35,97.95z"/>
</g>
</svg>
